<svg xmlns="http://www.w3.org/2000/svg" width="3.6in" height="3.6in" version="1.0" viewBox="0 0 3600 3600" shape-rendering="geometricPrecision" text-rendering="geometricPrecision" image-rendering="optimizeQuality" fill-rule="evenodd" clip-rule="evenodd"><defs><linearGradient id="prefix__a" gradientUnits="userSpaceOnUse" x1="1800" y1="0" x2="1800" y2="3600"><stop offset="0" stop-color="#008df2"/><stop offset="1" stop-color="#25a8f4"/></linearGradient><linearGradient id="prefix__b" gradientUnits="userSpaceOnUse" x1="2309.77" y1="2426.2" x2="824.51" y2="940.94"><stop offset="0" stop-color="#f80"/><stop offset="1" stop-color="#ff0"/></linearGradient><linearGradient id="prefix__c" gradientUnits="userSpaceOnUse" x1="2430.14" y1="2971.02" x2="1555.19" y2="1582.41"><stop offset="0" stop-color="#ccc"/><stop offset="1" stop-color="#fff"/></linearGradient></defs><rect width="3600" height="3600" rx="333.33" ry="333.33" fill="url(#prefix__a)"/><circle cx="1567.14" cy="1683.57" r="1050.24" fill="url(#prefix__b)"/><path d="M1635.58 1926.21a279.704 279.704 0 00-172.98-59.94h-.54c-154.1 0-279.51 124.28-283.34 279.07-163.85 62.81-272.15 220.35-272.15 395.95v1.22c.04.65.04 1.31.04 1.91 0 210.17 154.66 388.55 362.69 418.2v3.92l1450.95.13v-.74c202.33-11.8 362.83-181.39 362.83-388.99v-1.91c0-196.24-146.52-361.83-341.37-385.59.74-11.97 1.35-24.42 1.35-36.83 0-310.2-258.92-561.63-578.17-561.63-236.33 0-439.57 137.82-529.2 335.19m-.13.04z" fill="url(#prefix__c)" fill-rule="nonzero"/></svg>