<svg xmlns="http://www.w3.org/2000/svg" width="163.839" height="163.839" viewBox="0 0 4334.92 4334.92" shape-rendering="geometricPrecision" text-rendering="geometricPrecision" image-rendering="optimizeQuality" fill-rule="evenodd" clip-rule="evenodd"><defs><linearGradient id="prefix__a" gradientUnits="userSpaceOnUse" x1="2160.33" y1=".53" x2="2160.33" y2="4335.45"><stop offset="0" stop-color="#008df2"/><stop offset="1" stop-color="#25a8f4"/></linearGradient><linearGradient id="prefix__b" gradientUnits="userSpaceOnUse" x1="2627.16" y1="2732.81" x2="1286.02" y2="1390.78"><stop offset="0" stop-color="#f80"/><stop offset="1" stop-color="#ff0"/></linearGradient><linearGradient id="prefix__c" gradientUnits="userSpaceOnUse" x1="2736.43" y1="3225.01" x2="1946.21" y2="1970.59"><stop offset="0" stop-color="#ccc"/><stop offset="1" stop-color="#fff"/></linearGradient></defs><path d="M394.24.53h3532.18c221.63 0 401.37 179.74 401.37 401.37v3532.18c0 221.63-179.74 401.37-401.37 401.37H394.24c-221.63 0-401.37-179.74-401.37-401.38V401.9C-7.13 180.27 172.61.53 394.25.53z" fill="url(#prefix__a)"/><ellipse cx="1957.17" cy="2062.31" rx="948.5" ry="948.49" fill="url(#prefix__b)"/><path d="M2018.97 2281.44a252.565 252.565 0 00-156.22-54.14l-.49.01c-139.17 0-252.43 112.24-255.88 252.04-147.98 56.72-245.79 199-245.79 357.58v1.11c.04.58.04 1.18.04 1.72 0 189.81 139.67 350.91 327.55 377.69v3.54l1310.39.12v-.67c182.73-10.66 327.68-163.82 327.68-351.31v-1.72c0-177.23-132.33-326.78-308.3-348.23.67-10.81 1.22-22.06 1.22-33.27 0-280.15-233.84-507.22-522.16-507.22-213.44 0-396.99 124.47-477.94 302.72m-.11.03z" fill="url(#prefix__c)" fill-rule="nonzero"/></svg>