<?xml version="1.0" encoding="UTF-8"?>
<!DOCTYPE svg PUBLIC "-//W3C//DTD SVG 1.1//EN" "http://www.w3.org/Graphics/SVG/1.1/DTD/svg11.dtd">
<!-- Creator: CorelDRAW 2020 (64 Bit) -->
<svg xmlns="http://www.w3.org/2000/svg" xml:space="preserve" width="43.3492mm" height="43.3492mm" version="1.1" style="shape-rendering:geometricPrecision; text-rendering:geometricPrecision; image-rendering:optimizeQuality; fill-rule:evenodd; clip-rule:evenodd"
viewBox="0 0 4334.92 4334.92"
 xmlns:xlink="http://www.w3.org/1999/xlink"
 xmlns:xodm="http://www.corel.com/coreldraw/odm/2003">
 <defs>
  <style type="text/css">
   <![CDATA[
    .fil0 {fill:url(#id0)}
    .fil1 {fill:url(#id1)}
    .fil2 {fill:url(#id2);fill-rule:nonzero}
   ]]>
  </style>
  <linearGradient id="id0" gradientUnits="userSpaceOnUse" x1="2160.33" y1="0.53" x2="2160.33" y2="4335.45">
   <stop offset="0" style="stop-opacity:1; stop-color:#008DF2"/>
   <stop offset="1" style="stop-opacity:1; stop-color:#25A8F4"/>
  </linearGradient>
  <linearGradient id="id1" gradientUnits="userSpaceOnUse" x1="2466.78" y1="2544.89" x2="1572.69" y2="1650.21">
   <stop offset="0" style="stop-opacity:1; stop-color:#FF8800"/>
   <stop offset="1" style="stop-opacity:1; stop-color:yellow"/>
  </linearGradient>
  <linearGradient id="id2" gradientUnits="userSpaceOnUse" x1="2539.64" y1="2873.02" x2="2012.82" y2="2036.73">
   <stop offset="0" style="stop-opacity:1; stop-color:#CCCCCC"/>
   <stop offset="1" style="stop-opacity:1; stop-color:white"/>
  </linearGradient>
 </defs>
 <g id="Camada_x0020_1">
  <metadata id="CorelCorpID_0Corel-Layer"/>
  <path class="fil0" d="M394.24 0.53l3532.18 0c221.63,0 401.37,179.74 401.37,401.37l0 3532.18c0,221.63 -179.74,401.37 -401.37,401.37l-3532.18 0c-221.63,0 -401.37,-179.74 -401.37,-401.38l0 -3532.17c0,-221.63 179.74,-401.37 401.38,-401.37z"/>
  <g id="_1848137688656">
   <circle class="fil1" cx="2020.13" cy="2097.89" r="632.33"/>
   <path class="fil2" d="M2061.33 2243.98c-29.66,-23.37 -66.38,-36.09 -104.15,-36.09l-0.32 0c-92.78,0 -168.29,74.83 -170.6,168.02 -98.65,37.82 -163.85,132.67 -163.85,238.4l0 0.73c0.02,0.39 0.02,0.79 0.02,1.15 0,126.54 93.12,233.94 218.37,251.79l0 2.36 873.59 0.08 0 -0.45c121.82,-7.1 218.45,-109.21 218.45,-234.2l0 -1.15c0,-118.15 -88.21,-217.85 -205.53,-232.15 0.45,-7.21 0.81,-14.71 0.81,-22.18 0,-186.76 -155.89,-338.14 -348.1,-338.14 -142.29,0 -264.66,82.97 -318.62,201.81m-0.08 0.02z"/>
  </g>
 </g>
</svg>
